<svg width="565" height="219" viewBox="0 0 565 219" fill="none" xmlns="http://www.w3.org/2000/svg">
<path d="M239.183 36.9492V26.5H288.402V166.051H324.144V176.5H239.183V166.051H276.781V36.9492H239.183Z" fill="white"/>
<path fill-rule="evenodd" clip-rule="evenodd" d="M188.988 176.5H201.488L201.39 175.328C200.479 172.073 199.697 168.655 199.046 165.074C198.46 161.493 198.167 157.913 198.167 154.332V103.258C198.102 97.5286 196.996 92.5156 194.847 88.2188C192.764 83.9219 189.932 80.3086 186.351 77.3789C182.705 74.5794 178.441 72.4635 173.558 71.0312C168.675 69.599 163.434 68.8828 157.835 68.8828C152.236 68.8828 146.963 69.6641 142.015 71.2266C137.132 72.7891 132.835 74.9375 129.125 77.6719C125.414 80.4714 122.451 83.7591 120.238 87.5352C118.024 91.3112 116.82 95.4453 116.625 99.9375L128.343 100.035C128.408 96.7148 129.255 93.7526 130.882 91.1484C132.575 88.4792 134.723 86.2331 137.328 84.4102C139.997 82.5872 143.057 81.1875 146.507 80.2109C149.958 79.2344 153.571 78.7461 157.347 78.7461C161.449 78.7461 165.257 79.2995 168.773 80.4062C172.354 81.4479 175.446 82.9779 178.05 84.9961C180.654 87.0143 182.705 89.5534 184.203 92.6133C185.7 95.6081 186.481 99.0911 186.546 103.062V114.977H163.597C157.022 115.042 150.739 115.693 144.75 116.93C138.76 118.102 133.519 119.99 129.027 122.594C124.47 125.328 120.824 128.811 118.089 133.043C115.42 137.275 114.085 142.418 114.085 148.473C114.085 153.03 114.997 157.164 116.82 160.875C118.643 164.521 121.117 167.646 124.242 170.25C127.367 172.854 131.078 174.872 135.375 176.305C139.671 177.737 144.261 178.453 149.144 178.453C153.05 178.453 156.794 178.03 160.375 177.184C164.02 176.402 167.471 175.23 170.726 173.668C173.916 172.171 176.846 170.348 179.515 168.199C182.25 165.986 184.626 163.544 186.644 160.875C186.774 163.609 187.002 166.311 187.328 168.98C187.718 171.65 188.272 174.156 188.988 176.5ZM150.414 168.004C147.028 168.004 143.805 167.548 140.746 166.637C137.751 165.66 135.147 164.26 132.933 162.438C130.72 160.68 128.962 158.531 127.66 155.992C126.358 153.453 125.707 150.589 125.707 147.398C125.707 143.492 126.553 140.172 128.246 137.438C130.003 134.638 132.38 132.294 135.375 130.406C139.085 128.062 143.545 126.435 148.753 125.523C153.962 124.612 159.463 124.124 165.257 124.059H186.546V147.301C185.049 150.426 183.096 153.258 180.687 155.797C178.278 158.336 175.511 160.517 172.386 162.34C169.261 164.163 165.843 165.595 162.132 166.637C158.421 167.613 154.515 168.069 150.414 168.004Z" fill="white"/>
<path fill-rule="evenodd" clip-rule="evenodd" d="M353.246 122.691V124.742C353.246 131.643 354.125 138.414 355.882 145.055C357.64 151.63 360.342 157.392 363.988 162.34C367.438 167.223 371.735 171.129 376.878 174.059C382.022 176.988 388.076 178.453 395.042 178.453C398.558 178.453 401.944 178.062 405.199 177.281C408.519 176.5 411.611 175.361 414.476 173.863C416.885 172.561 419.098 171.064 421.117 169.371C423.2 167.613 425.023 165.628 426.585 163.414V175.035C426.585 180.048 425.869 184.605 424.437 188.707C423.07 192.874 421.084 196.422 418.48 199.352C415.746 202.281 412.425 204.56 408.519 206.188C404.678 207.815 400.251 208.629 395.238 208.629C392.048 208.629 388.988 208.206 386.058 207.359C383.194 206.578 380.427 205.439 377.757 203.941C375.609 202.704 373.526 201.207 371.507 199.449C369.489 197.691 367.536 195.673 365.648 193.395L359.105 200.621C361.188 203.421 363.565 205.862 366.234 207.945C368.968 210.094 371.8 211.884 374.73 213.316C378.115 215.074 381.631 216.376 385.277 217.223C388.923 218.134 392.503 218.59 396.019 218.59C402.529 218.59 408.356 217.516 413.5 215.367C418.708 213.219 423.167 210.191 426.878 206.285C430.524 202.444 433.324 197.822 435.277 192.418C437.295 187.079 438.304 181.155 438.304 174.645V70.8359H427.464L426.976 85.6797C425.479 83.401 423.753 81.3177 421.8 79.4297C419.912 77.5417 417.829 75.8815 415.55 74.4492C412.686 72.6263 409.528 71.2591 406.078 70.3477C402.692 69.3711 399.079 68.8828 395.238 68.8828C387.881 68.8828 381.533 70.4779 376.195 73.668C370.921 76.793 366.592 80.862 363.207 85.875C359.821 90.888 357.315 96.5521 355.687 102.867C354.059 109.182 353.246 115.79 353.246 122.691ZM364.964 124.742V122.691C364.964 117.483 365.485 112.34 366.527 107.262C367.634 102.184 369.424 97.5938 371.898 93.4922C374.372 89.3255 377.692 85.9076 381.859 83.2383C386.026 80.5039 391.201 79.1367 397.386 79.1367C400.902 79.1367 404.157 79.6576 407.152 80.6992C410.212 81.6758 412.979 83.0755 415.453 84.8984C417.927 86.7214 420.108 88.8698 421.996 91.3438C423.884 93.8177 425.414 96.5846 426.585 99.6445V149.352C425.414 152.281 423.819 154.918 421.8 157.262C419.847 159.54 417.634 161.493 415.16 163.121C412.555 164.749 409.723 166.018 406.664 166.93C403.669 167.776 400.511 168.199 397.191 168.199C391.462 168.199 386.546 166.995 382.445 164.586C378.343 162.177 375.088 158.987 372.679 155.016C370.01 150.979 368.057 146.292 366.82 140.953C365.648 135.549 365.029 130.146 364.964 124.742Z" fill="#4A90E2"/>
<path fill-rule="evenodd" clip-rule="evenodd" d="M470.726 125.328V122.105C470.726 114.944 471.8 108.141 473.949 101.695C476.097 95.25 479.19 89.6185 483.226 84.8008C487.263 79.918 492.178 76.0443 497.972 73.1797C503.766 70.3151 510.375 68.8828 517.796 68.8828C525.153 68.8828 531.729 70.3151 537.523 73.1797C543.382 76.0443 548.363 79.8854 552.464 84.7031C556.436 89.5859 559.496 95.25 561.644 101.695C563.792 108.141 564.899 114.944 564.964 122.105V125.328C564.899 132.49 563.792 139.293 561.644 145.738C559.561 152.118 556.501 157.75 552.464 162.633C548.428 167.451 543.513 171.292 537.718 174.156C531.924 177.021 525.348 178.453 517.992 178.453C510.57 178.453 503.929 177.053 498.07 174.254C492.21 171.389 487.295 167.516 483.324 162.633C479.222 157.815 476.097 152.184 473.949 145.738C471.8 139.293 470.726 132.49 470.726 125.328ZM482.347 122.105V125.328C482.347 130.927 483.128 136.331 484.691 141.539C486.253 146.747 488.532 151.337 491.527 155.309C494.522 159.345 498.233 162.568 502.66 164.977C507.087 167.32 512.197 168.492 517.992 168.492C523.721 168.492 528.766 167.32 533.128 164.977C537.49 162.568 541.201 159.345 544.261 155.309C547.191 151.272 549.404 146.682 550.902 141.539C552.464 136.331 553.278 130.927 553.343 125.328V122.105C553.278 116.572 552.464 111.201 550.902 105.992C549.339 100.784 547.093 96.194 544.164 92.2227C541.104 88.1862 537.36 84.9635 532.933 82.5547C528.571 80.1458 523.526 78.9414 517.796 78.9414C512.002 78.9414 506.924 80.1458 502.562 82.5547C498.2 84.9635 494.522 88.1862 491.527 92.2227C488.532 96.194 486.253 100.784 484.691 105.992C483.128 111.201 482.347 116.572 482.347 122.105Z" fill="#4A90E2"/>
<path d="M0 68.5L34.5659 176.5H45.4058L102 0H89.5L42.0855 151.5L39.937 158.824L37.7886 151.598L11.9806 68.5H0Z" fill="#4A90E2"/>
</svg>
